<svg xmlns="http://www.w3.org/2000/svg" xmlns:xlink="http://www.w3.org/1999/xlink" width="500" zoomAndPan="magnify" viewBox="0 0 375 374.999991" height="500" preserveAspectRatio="xMidYMid meet" version="1.0"><defs><g/><clipPath id="1e921ff159"><path d="M 114 94.542969 L 262.5 94.542969 L 262.5 230.292969 L 114 230.292969 Z M 114 94.542969 " clip-rule="nonzero"/></clipPath><clipPath id="e8898637ad"><path d="M 233 183 L 262.5 183 L 262.5 214 L 233 214 Z M 233 183 " clip-rule="nonzero"/></clipPath><clipPath id="54f6b06015"><rect x="0" width="224" y="0" height="61"/></clipPath></defs><g clip-path="url(#1e921ff159)"><path fill="#000000" d="M 128.285156 230.269531 C 126.476562 230.269531 124.601562 229.921875 122.863281 229.15625 C 115.769531 226.15625 112.5 217.925781 115.492188 210.882812 L 153.042969 122.253906 C 153.667969 120.859375 154.433594 119.535156 155.476562 118.417969 L 155.824219 118 C 158.953125 114.441406 163.683594 112.769531 168.339844 113.535156 C 173 114.304688 176.964844 117.371094 178.910156 121.695312 L 197.269531 163.535156 L 234.824219 101.679688 C 237.046875 97.984375 240.871094 95.546875 245.183594 95.058594 C 249.496094 94.570312 253.738281 96.171875 256.726562 99.242188 L 257.632812 100.21875 C 260.066406 102.796875 261.457031 106.144531 261.527344 109.699219 L 262.222656 160.117188 C 262.359375 167.789062 256.171875 174.136719 248.523438 174.273438 C 240.871094 174.414062 234.542969 168.207031 234.40625 160.535156 L 234.335938 156.003906 L 207.214844 200.703125 C 204.503906 205.167969 199.566406 207.675781 194.417969 207.328125 C 189.273438 206.980469 184.683594 203.773438 182.597656 199.03125 L 166.324219 162.070312 L 141.011719 221.761719 C 138.785156 227.0625 133.640625 230.269531 128.285156 230.269531 Z M 128.285156 230.269531 " fill-opacity="1" fill-rule="nonzero"/></g><g clip-path="url(#e8898637ad)"><path fill="#000000" d="M 262.5 198.472656 C 262.5 199.433594 262.40625 200.386719 262.21875 201.328125 C 262.03125 202.273438 261.753906 203.1875 261.386719 204.074219 C 261.019531 204.964844 260.570312 205.808594 260.039062 206.609375 C 259.507812 207.40625 258.902344 208.148438 258.222656 208.828125 C 257.542969 209.507812 256.808594 210.113281 256.007812 210.648438 C 255.210938 211.183594 254.371094 211.632812 253.484375 212 C 252.597656 212.371094 251.6875 212.648438 250.746094 212.835938 C 249.804688 213.023438 248.855469 213.117188 247.894531 213.117188 C 246.9375 213.117188 245.988281 213.023438 245.046875 212.835938 C 244.105469 212.648438 243.195312 212.371094 242.308594 212 C 241.421875 211.632812 240.582031 211.183594 239.78125 210.648438 C 238.984375 210.113281 238.25 209.507812 237.570312 208.828125 C 236.890625 208.148438 236.285156 207.40625 235.753906 206.609375 C 235.222656 205.808594 234.769531 204.964844 234.40625 204.074219 C 234.039062 203.1875 233.761719 202.273438 233.574219 201.328125 C 233.386719 200.386719 233.292969 199.433594 233.292969 198.472656 C 233.292969 197.511719 233.386719 196.558594 233.574219 195.613281 C 233.761719 194.671875 234.039062 193.757812 234.40625 192.867188 C 234.769531 191.980469 235.222656 191.136719 235.753906 190.335938 C 236.285156 189.535156 236.890625 188.796875 237.570312 188.117188 C 238.25 187.4375 238.984375 186.828125 239.78125 186.296875 C 240.582031 185.761719 241.421875 185.308594 242.308594 184.941406 C 243.195312 184.574219 244.105469 184.296875 245.046875 184.109375 C 245.988281 183.921875 246.9375 183.828125 247.894531 183.828125 C 248.855469 183.828125 249.804688 183.921875 250.746094 184.109375 C 251.6875 184.296875 252.597656 184.574219 253.484375 184.941406 C 254.371094 185.308594 255.210938 185.761719 256.007812 186.296875 C 256.808594 186.828125 257.542969 187.4375 258.222656 188.117188 C 258.902344 188.796875 259.507812 189.535156 260.039062 190.335938 C 260.570312 191.136719 261.019531 191.980469 261.386719 192.867188 C 261.753906 193.757812 262.03125 194.671875 262.21875 195.613281 C 262.40625 196.558594 262.5 197.511719 262.5 198.472656 Z M 262.5 198.472656 " fill-opacity="1" fill-rule="nonzero"/></g><g transform="matrix(1, 0, 0, 1, 76, 224)"><g clip-path="url(#54f6b06015)"><g fill="#000000" fill-opacity="1"><g transform="translate(0.772094, 45.531522)"><g><path d="M 36.125 -29.59375 L 36.125 0 L 28.921875 0 L 28.921875 -17.75 L 22.296875 0 L 16.484375 0 L 9.828125 -17.796875 L 9.828125 0 L 2.609375 0 L 2.609375 -29.59375 L 11.125 -29.59375 L 19.4375 -9.109375 L 27.65625 -29.59375 Z M 36.125 -29.59375 "/></g></g></g><g fill="#000000" fill-opacity="1"><g transform="translate(39.47546, 45.531522)"><g><path d="M 9.828125 -23.8125 L 9.828125 -17.828125 L 19.46875 -17.828125 L 19.46875 -12.265625 L 9.828125 -12.265625 L 9.828125 -5.78125 L 20.734375 -5.78125 L 20.734375 0 L 2.609375 0 L 2.609375 -29.59375 L 20.734375 -29.59375 L 20.734375 -23.8125 Z M 9.828125 -23.8125 "/></g></g></g><g fill="#000000" fill-opacity="1"><g transform="translate(62.284308, 45.531522)"><g><path d="M 13.703125 -29.59375 C 16.816406 -29.59375 19.539062 -28.972656 21.875 -27.734375 C 24.207031 -26.503906 26.015625 -24.769531 27.296875 -22.53125 C 28.578125 -20.300781 29.21875 -17.722656 29.21875 -14.796875 C 29.21875 -11.898438 28.578125 -9.328125 27.296875 -7.078125 C 26.015625 -4.828125 24.203125 -3.082031 21.859375 -1.84375 C 19.515625 -0.613281 16.796875 0 13.703125 0 L 2.609375 0 L 2.609375 -29.59375 Z M 13.234375 -6.234375 C 15.960938 -6.234375 18.082031 -6.976562 19.59375 -8.46875 C 21.113281 -9.957031 21.875 -12.066406 21.875 -14.796875 C 21.875 -17.523438 21.113281 -19.644531 19.59375 -21.15625 C 18.082031 -22.675781 15.960938 -23.4375 13.234375 -23.4375 L 9.828125 -23.4375 L 9.828125 -6.234375 Z M 13.234375 -6.234375 "/></g></g></g><g fill="#000000" fill-opacity="1"><g transform="translate(92.93501, 45.531522)"><g><path d="M 9.828125 -29.59375 L 9.828125 0 L 2.609375 0 L 2.609375 -29.59375 Z M 9.828125 -29.59375 "/></g></g></g><g fill="#000000" fill-opacity="1"><g transform="translate(105.372361, 45.531522)"><g><path d="M 21.03125 -5.234375 L 9.984375 -5.234375 L 8.21875 0 L 0.671875 0 L 11.375 -29.59375 L 19.734375 -29.59375 L 30.4375 0 L 22.8125 0 Z M 19.1875 -10.796875 L 15.515625 -21.625 L 11.890625 -10.796875 Z M 19.1875 -10.796875 "/></g></g></g><g fill="#000000" fill-opacity="1"><g transform="translate(136.444672, 45.531522)"><g><path d="M 21.875 -29.59375 L 21.875 -23.8125 L 9.828125 -23.8125 L 9.828125 -17.578125 L 18.84375 -17.578125 L 18.84375 -11.96875 L 9.828125 -11.96875 L 9.828125 0 L 2.609375 0 L 2.609375 -29.59375 Z M 21.875 -29.59375 "/></g></g></g><g fill="#000000" fill-opacity="1"><g transform="translate(159.506477, 45.531522)"><g><path d="M 9.828125 -5.5625 L 19.265625 -5.5625 L 19.265625 0 L 2.609375 0 L 2.609375 -29.59375 L 9.828125 -29.59375 Z M 9.828125 -5.5625 "/></g></g></g><g fill="#000000" fill-opacity="1"><g transform="translate(179.617052, 45.531522)"><g><path d="M 9.828125 -29.59375 L 9.828125 0 L 2.609375 0 L 2.609375 -29.59375 Z M 9.828125 -29.59375 "/></g></g></g><g fill="#000000" fill-opacity="1"><g transform="translate(192.054403, 45.531522)"><g><path d="M 20.734375 0 L 14.71875 -9.0625 L 9.40625 0 L 1.21875 0 L 10.703125 -15.046875 L 1.015625 -29.59375 L 9.40625 -29.59375 L 15.34375 -20.65625 L 20.578125 -29.59375 L 28.75 -29.59375 L 19.34375 -14.671875 L 29.125 0 Z M 20.734375 0 "/></g></g></g></g></g></svg>